<svg xmlns="http://www.w3.org/2000/svg" xmlns:xlink="http://www.w3.org/1999/xlink"
     id="moio_banner"
     class="w-full h-auto"
     viewBox="0 0 720 239.999995"
     shape-rendering="geometricPrecision"
     text-rendering="geometricPrecision">
    <g id="moio_banner-s-g1" clip-path="url(#moio_banner-u-ba5030dc9f)">
        <g id="moio_banner-s-g2">
            <path id="moio_banner-s-path1" d="M483.617188,34.410156h149.433593v148.855469h-149.433593v-148.855469Zm0,0" fill="#ff5757"/>
        </g><clipPath id="moio_banner-u-ba5030dc9f"><path id="moio_banner-s-path2" d="M483.617188,34.410156h149.605468v148.855469h-149.605468v-148.855469Zm0,0" transform="translate(0 0.000001)"/>
    </clipPath></g>
    <g id="moio_banner-s-g3"><g id="moio_banner-s-g4">
        <g id="moio_banner-s-g5" transform="translate(491.89 168.293)">
            <g id="moio_banner-s-g6">
                <path id="moio_banner-s-path3" d="M7.710938,0h11.003906v-12.023438h-11.003906v12.023438Zm0,0" fill="#fff"/>
            </g>
        </g>
    </g>
        <g id="moio_banner-s-g7">
            <g id="moio_banner-s-g8" transform="translate(518.426 168.293)">
                <g id="moio_banner-s-g9">
                    <path id="moio_banner-s-path4" d="M61.929688,-61.246094l-1.25,9.414063c-5.671876-6.691407-14.175782-10.664063-24.15625-10.664063-18.148438,0-31.757813,13.613282-31.757813,31.984375c0,18.148438,13.609375,31.871094,31.757813,31.871094c9.980468,0,18.371093-3.96875,24.042968-10.546875L61.585938,0h7.941406v-61.246094h-7.597656ZM37.203125,-7.941406c-12.929687,0-22.570313-9.753906-22.570313-22.683594c0-12.816406,9.640626-22.570312,22.570313-22.570312c13.042969,0,22.457031,9.640624,22.457031,22.570312c0,13.042969-9.414062,22.683594-22.457031,22.683594Zm0,0" fill="#fff"/>
                </g>
            </g>
        </g>
        <g id="moio_banner-s-g10">
            <g id="moio_banner-s-g11" transform="translate(597.695 168.293)">
                <g id="moio_banner-s-g12" transform="translate(0 0.000001)">
                    <path id="moio_banner-s-path5" d="M9.300781,-71.796875h10.433594v-11h-10.433594v11ZM9.640625,0h9.640625v-61.246094h-9.640625v61.246094Zm0,0" transform="translate(0 0.000001)" fill="#fff"/>
                </g>
            </g>
        </g>
    </g>
    <g id="moio_banner-s-g13" transform="translate(.000001 0)">
        <g id="moio_banner-s-g14"><g id="moio_banner-s-g15" transform="translate(88.7418 213.072)">
            <g id="moio_banner-s-g16">
                <path id="moio_banner-s-path6" d="M4.652344,-0.464844l6.429687-2.789062c1.75-.769532,3.800781.082031,4.511719,1.886718.246094.628907.851562,1.039063,1.535156,1.039063h.082032c1.203124,0,2.023437-1.230469,1.53125-2.324219l-6.757813-15.570312c-.273437-.601563-.875-1.011719-1.53125-1.011719h-.714844c-.683593,0-1.285156.410156-1.53125,1.011719L1.503906,-2.652344c-.492187,1.09375.328125,2.324219,1.53125,2.324219h.960938c.21875,0,.4375-.054687.65625-.136719Zm7.03125-6.429687l-1.945313.847656c-1.339843.574219-2.761719-.738281-2.214843-2.132813l1.09375-2.957031c.546874-1.421875,2.574218-1.421875,3.148437,0l.792969,2.109375c.328125.847656-.054688,1.777344-.875,2.132813Zm0,0" fill="#2b4863"/>
            </g>
        </g>
        </g>
        <g id="moio_banner-s-g17">
            <g id="moio_banner-s-g18" transform="translate(120.146 213.072)">
                <g id="moio_banner-s-g19">
                    <path id="moio_banner-s-path7" d="M18.386719,-1.367188v-15.789062c0-.875-.683594-1.558594-1.558594-1.558594-.851563,0-1.5625.683594-1.5625,1.558594l-.054687,12.585938c0,.875-.683594,1.5625-1.558594,1.5625l-7.523438-.027344c-.875,0-1.558594-.6875-1.558594-1.5625v-12.558594c0-.875-.710937-1.558594-1.589843-1.558594h-.054688c-.875,0-1.558593.683594-1.558593,1.558594v15.789062c0,.847657.683593,1.558594,1.558593,1.558594h13.902344c.875,0,1.558594-.710937,1.558594-1.558594Zm0,0" fill="#2b4863"/>
                </g>
            </g>
        </g>
        <g id="moio_banner-s-g20">
            <g id="moio_banner-s-g21" transform="translate(151.058 213.072)">
                <g id="moio_banner-s-g22">
                    <path id="moio_banner-s-path8" d="M19.152344,-2.269531v-7.195313c0-.824218-.65625-1.507812-1.503906-1.507812h-4.1875c-.847657,0-1.53125.683594-1.53125,1.507812c0,.847656.683593,1.53125,1.53125,1.53125h.820312c.847656,0,1.503906.683594,1.503906,1.53125v1.941406c0,.65625-.410156,1.234376-1.011718,1.453126-.300782.109374-.65625.21875-.984376.273437-.765624.164063-1.558593.246094-2.433593.246094-.957031,0-1.863281-.164063-2.65625-.519531-.792969-.359376-1.449219-.851563-2.023438-1.480469s-1.011719-1.367188-1.339843-2.214844c-.300782-.847656-.464844-1.804687-.464844-2.816406c0-.933594.164062-1.808594.464844-2.628907.328124-.820312.765624-1.53125,1.339843-2.160156.574219-.601562,1.230469-1.09375,2.023438-1.449218.792969-.328126,1.699219-.519532,2.65625-.519532.984375,0,1.886719.164063,2.761719.492188.4375.164062.875.382812,1.257812.628906.601562.382812,1.371094.273438,1.890625-.21875l.273437-.300781c.710938-.710938.546876-1.917969-.355468-2.410157-.546875-.300781-1.152344-.519531-1.78125-.710937-1.257813-.328125-2.625-.519531-4.046875-.519531-1.476563,0-2.820313.246094-4.023438.710937-1.230469.464844-2.269531,1.148438-3.171875,2.023438-.878906.878906-1.5625,1.917969-2.054687,3.148437-.492188,1.257813-.738281,2.625-.738281,4.132813c0,1.476562.246093,2.816406.738281,4.046875.492187,1.203125,1.175781,2.246094,2.054687,3.09375.902344.875,1.941406,1.53125,3.171875,1.996094c1.203125.492187,2.546875.710937,4.023438.710937c2.515625,0,4.8125-.464844,6.921875-1.421875.546875-.246094.875-.792969.875-1.394531Zm0,0" fill="#2b4863"/>
                </g>
            </g>
        </g>
        <g id="moio_banner-s-g23">
            <g id="moio_banner-s-g24" transform="translate(182.735 213.072)">
                <g id="moio_banner-s-g25">
                    <path id="moio_banner-s-path9" d="M1.367188,-17.347656v15.761718c0,.847657.683593,1.558594,1.558593,1.558594h.054688c.878906,0,1.589843-.710937,1.589843-1.558594v-14.117187h3.800782c.875,0,1.5625.683594,1.5625,1.558594v12.558593c0,.847657.710937,1.558594,1.585937,1.558594s1.585938-.710937,1.585938-1.558594v-12.558593c0-.875.710937-1.558594,1.585937-1.558594h3.804688v14.117187c0,.847657.710937,1.558594,1.585937,1.558594h.027344c.875,0,1.585937-.710937,1.585937-1.558594v-15.761718c0-.875-.710937-1.585938-1.585937-1.585938h-17.183594c-.875,0-1.558593.710938-1.558593,1.585938Zm0,0" fill="#2b4863"/></g></g></g><g id="moio_banner-s-g26"><g id="moio_banner-s-g27" transform="translate(216.957 213.072)"><g id="moio_banner-s-g28"><path id="moio_banner-s-path10" d="M1.367188,-9.273438v7.824219c0,.847657.65625,1.53125,1.503906,1.53125h8.648437c.847657,0,1.53125-.683593,1.53125-1.53125s-.683593-1.53125-1.53125-1.53125h-5.28125c-.847656,0-1.53125-.660156-1.53125-1.507812v-1.777344c0-.820313.683594-1.503906,1.53125-1.503906h5.28125c.847657,0,1.53125-.683594,1.53125-1.53125c0-.824219-.683593-1.507813-1.53125-1.507813l-8.648437.027344c-.847656,0-1.503906.683594-1.503906,1.507812Zm1.503906-6.511718h8.675781c.847656,0,1.53125-.6875,1.53125-1.535156c0-.820313-.683594-1.503907-1.53125-1.503907h-8.675781c-.847656,0-1.503906.683594-1.503906,1.503907c0,.847656.65625,1.535156,1.503906,1.535156Zm0,0" fill="#2b4863"/></g></g></g><g id="moio_banner-s-g29"><g id="moio_banner-s-g30" transform="translate(242.535 213.072)"><g id="moio_banner-s-g31"><path id="moio_banner-s-path11" d="M1.367188,-17.347656v15.761718c0,.875.683593,1.558594,1.558593,1.558594.851563,0,1.5625-.683594,1.5625-1.558594l.027344-12.585937c0-.847656.710937-1.558594,1.585937-1.558594l7.523438.027344c.875,0,1.558594.710937,1.558594,1.558594v12.558593c0,.875.710937,1.558594,1.5625,1.558594h.082031c.875,0,1.558594-.683594,1.558594-1.558594v-15.761718c0-.875-.683594-1.585938-1.558594-1.585938h-13.902344c-.875,0-1.558593.710938-1.558593,1.585938Zm0,0" fill="#2b4863"/></g></g></g><g id="moio_banner-s-g32"><g id="moio_banner-s-g33" transform="translate(273.447 213.072)"><g id="moio_banner-s-g34"><path id="moio_banner-s-path12" d="M7.140625,-14.855469v12.832031c0,.847657.683594,1.503907,1.53125,1.503907h.328125c.820312,0,1.507812-.65625,1.507812-1.503907v-12.832031c0-.820312.683594-1.503906,1.53125-1.503906h2.734376c.847656,0,1.53125-.6875,1.53125-1.535156s-.683594-1.503907-1.53125-1.503907h-11.902344c-.847656,0-1.503906.65625-1.503906,1.503907s.65625,1.535156,1.503906,1.535156h2.765625c.820312,0,1.503906.683594,1.503906,1.503906Zm0,0" fill="#2b4863"/></g></g></g><g id="moio_banner-s-g35"><g id="moio_banner-s-g36" transform="translate(302.28 213.072)"><g id="moio_banner-s-g37"><path id="moio_banner-s-path13" d="M1.367188,-9.273438v7.824219c0,.847657.65625,1.53125,1.503906,1.53125h8.648437c.847657,0,1.53125-.683593,1.53125-1.53125s-.683593-1.53125-1.53125-1.53125h-5.28125c-.847656,0-1.53125-.660156-1.53125-1.507812v-1.777344c0-.820313.683594-1.503906,1.53125-1.503906h5.28125c.847657,0,1.53125-.683594,1.53125-1.53125c0-.824219-.683593-1.507813-1.53125-1.507813l-8.648437.027344c-.847656,0-1.503906.683594-1.503906,1.507812Zm1.503906-6.511718h8.675781c.847656,0,1.53125-.6875,1.53125-1.535156c0-.820313-.683594-1.503907-1.53125-1.503907h-8.675781c-.847656,0-1.503906.683594-1.503906,1.503907c0,.847656.65625,1.535156,1.503906,1.535156Zm0,0" fill="#2b4863"/></g></g></g><g id="moio_banner-s-g38"><g id="moio_banner-s-g39" transform="translate(327.858 213.072)"><g id="moio_banner-s-g40"><path id="moio_banner-s-path14" d="M1.367188,-17.976562v12.421874c0,.273438.054687.519532.21875.738282L4.351562,-0.875c.21875.355469.601563.546875,1.039063.546875h3.007813c1.148437,0,2.300781-.191406,3.503906-.574219c1.175781-.382812,2.242187-.957031,3.226562-1.722656.957032-.796875,1.753906-1.753906,2.355469-2.957031.628906-1.175781.929687-2.570313.929687-4.183594c0-1.617187-.273437-3.011719-.792968-4.1875-.546875-1.175781-1.261719-2.160156-2.136719-2.957031-.902344-.765625-1.914063-1.367188-3.0625-1.75-1.175781-.382813-2.378906-.574219-3.613281-.574219h-6.183594c-.710938,0-1.257812.574219-1.257812,1.257813ZM7.222656,-3.367188c-.410156,0-.820312-.21875-1.039062-.546874L4.925781,-5.773438c-.136719-.21875-.21875-.464843-.21875-.710937v-8.425781c0-.710938.574219-1.285156,1.285157-1.285156h1.804687c1.011719,0,1.96875.136718,2.847656.382812.847657.21875,1.613281.601562,2.242188,1.121094.628906.492187,1.121093,1.148437,1.476562,1.96875s.519531,1.804687.519531,2.957031c0,1.148437-.191406,2.132813-.601562,2.953125-.382812.792969-.929688,1.449219-1.640625,1.96875-.683594.492188-1.503906.875-2.433594,1.121094-.933593.246094-1.917969.355468-2.984375.355468Zm0,0" fill="#2b4863"/></g></g></g><g id="moio_banner-s-g41"><g id="moio_banner-s-g42" transform="translate(378.851 213.072)"><g id="moio_banner-s-g43"><path id="moio_banner-s-path15" d="M2.679688,-16.332031h4.816406c1.285156,0,2.214844.191406,2.792968.601562.574219.382813.875,1.011719.875,1.804688c0,.601562-.191406,1.066406-.574218,1.476562-.300782.300781-.601563.492188-1.042969.492188l-6.894531.054687c-.710938,0-1.285156.601563-1.285156,1.3125v8.949219c0,.738281.574218,1.3125,1.3125,1.3125h5.472656c.902344,0,1.78125-.082031,2.65625-.273437.847656-.164063,1.613281-.464844,2.269531-.875.683594-.4375,1.203125-.984376,1.613281-1.667969.410156-.6875.628906-1.535157.628906-2.574219c0-.601562-.109374-1.175781-.300781-1.695312-.21875-.519532-.492187-.984376-.847656-1.394532-.355469-.382812-.792969-.710937-1.285156-.984375-.519531-.25-1.066407-.414062-1.640625-.496093v-.054688c.957031-.300781,1.75-.792969,2.351562-1.476562.628906-.710938.929688-1.585938.929688-2.652344c0-.847656-.191406-1.585938-.519532-2.191406-.328124-.601563-.765624-1.09375-1.3125-1.476563s-1.175781-.65625-1.859374-.820313c-.683594-.191406-1.398438-.273437-2.109376-.273437h-6.046874c-.738282,0-1.3125.601563-1.3125,1.3125v.273437c0,.710938.574218,1.316407,1.3125,1.316407Zm2.027343,9c0-.738281.601563-1.3125,1.339844-1.3125h1.914063c1.367187,0,2.382812.191406,3.011718.574219.65625.382812.984375,1.09375.984375,2.078124c0,.628907-.136719,1.121094-.410156,1.476563-.246094.382813-.601563.65625-1.011719.847656s-.851562.328125-1.34375.386719c-.492187.054688-.957031.082031-1.367187.082031h-1.777344c-.738281,0-1.339844-.605469-1.339844-1.316406v-2.816406Zm0,0" fill="#2b4863"/></g></g></g><g id="moio_banner-s-g44"><g id="moio_banner-s-g45" transform="translate(406.672 213.072)"><g id="moio_banner-s-g46"><path id="moio_banner-s-path16" d="M18.386719,-1.367188v-15.789062c0-.875-.683594-1.558594-1.558594-1.558594-.851563,0-1.5625.683594-1.5625,1.558594l-.054687,12.585938c0,.875-.683594,1.5625-1.558594,1.5625l-7.523438-.027344c-.875,0-1.558594-.6875-1.558594-1.5625v-12.558594c0-.875-.710937-1.558594-1.589843-1.558594h-.054688c-.875,0-1.558593.683594-1.558593,1.558594v15.789062c0,.847657.683593,1.558594,1.558593,1.558594h13.902344c.875,0,1.558594-.710937,1.558594-1.558594Zm0,0" fill="#2b4863"/></g></g></g><g id="moio_banner-s-g47"><g id="moio_banner-s-g48" transform="translate(437.584 213.072)"><g id="moio_banner-s-g49"><path id="moio_banner-s-path17" d="M12.449219,-16.582031c.738281-.792969.519531-2.105469-.464844-2.570313-.246094-.109375-.492187-.191406-.765625-.273437-.929688-.328125-1.890625-.464844-2.902344-.464844-.875,0-1.722656.109375-2.542968.355469-.847657.21875-1.585938.574218-2.242188,1.039062-.660156.464844-1.179688,1.066406-1.589844,1.777344-.382812.714844-.574218,1.5625-.574218,2.546875c0,1.121094.21875,1.996094.65625,2.679687.4375.65625.984374,1.203126,1.644531,1.585938.65625.414062,1.394531.742188,2.160156.960938.792969.246093,1.503906.464843,2.1875.738281.65625.246093,1.203125.574219,1.640625.957031.441406.355469.660156.902344.660156,1.585938c0,.4375-.082031.820312-.273437,1.148437-.195313.328125-.46875.601563-.796875.792969-.300782.21875-.65625.382812-1.066406.496094-.382813.109374-.765626.164062-1.175782.164062-.738281,0-1.449218-.191406-2.105468-.523438-.246094-.136718-.464844-.273437-.683594-.4375-.628906-.492187-1.535156-.4375-2.109375.109376l-.136719.136718c-.710938.6875-.65625,1.917969.191406,2.464844.4375.300781.902344.519531,1.398438.710938c1.066406.382812,2.214844.574218,3.363281.574218.929687,0,1.804687-.136718,2.652344-.382812.851562-.246094,1.5625-.601563,2.21875-1.121094.628906-.492188,1.121093-1.121094,1.503906-1.863281.355469-.765625.546875-1.640625.546875-2.679688c0-1.121093-.21875-1.996093-.65625-2.679687s-1.011719-1.234375-1.667969-1.644532-1.367187-.710937-2.164062-.957031c-.765625-.21875-1.503907-.464843-2.160157-.710937s-1.203124-.546875-1.640624-.875c-.464844-.355469-.683594-.847656-.683594-1.476563c0-.4375.109375-.792969.273437-1.09375.191407-.328125.410157-.574219.710938-.765625.300781-.195312.628906-.359375.984375-.441406s.738281-.136719,1.148437-.136719c.65625,0,1.285157.136719,1.859375.355469.195313.085938.332032.167969.496094.25.65625.410156,1.476562.328125,1.996094-.222656l.109375-.109375Zm0,0" fill="#2b4863"/></g></g></g><g id="moio_banner-s-g50"><g id="moio_banner-s-g51" transform="translate(463.955 213.072)"><g id="moio_banner-s-g52"><path id="moio_banner-s-path18" d="M1.367188,-17.347656v15.542968c0,.929688.738281,1.695313,1.667968,1.695313.933594,0,1.671875-.765625,1.671875-1.695313v-15.542968c0-.929688-.738281-1.667969-1.671875-1.667969-.929687,0-1.667968.738281-1.667968,1.667969Zm0,0" fill="#2b4863"/></g></g></g><g id="moio_banner-s-g53"><g id="moio_banner-s-g54" transform="translate(481.191 213.072)"><g id="moio_banner-s-g55"><path id="moio_banner-s-path19" d="M1.367188,-17.347656v15.761718c0,.875.683593,1.558594,1.558593,1.558594.851563,0,1.5625-.683594,1.5625-1.558594l.027344-12.585937c0-.847656.710937-1.558594,1.585937-1.558594l7.523438.027344c.875,0,1.558594.710937,1.558594,1.558594v12.558593c0,.875.710937,1.558594,1.5625,1.558594h.082031c.875,0,1.558594-.683594,1.558594-1.558594v-15.761718c0-.875-.683594-1.585938-1.558594-1.585938h-13.902344c-.875,0-1.558593.710938-1.558593,1.585938Zm0,0" fill="#2b4863"/></g></g></g><g id="moio_banner-s-g56"><g id="moio_banner-s-g57" transform="translate(512.103 213.072)"><g id="moio_banner-s-g58"><path id="moio_banner-s-path20" d="M1.367188,-9.273438v7.824219c0,.847657.65625,1.53125,1.503906,1.53125h8.648437c.847657,0,1.53125-.683593,1.53125-1.53125s-.683593-1.53125-1.53125-1.53125h-5.28125c-.847656,0-1.53125-.660156-1.53125-1.507812v-1.777344c0-.820313.683594-1.503906,1.53125-1.503906h5.28125c.847657,0,1.53125-.683594,1.53125-1.53125c0-.824219-.683593-1.507813-1.53125-1.507813l-8.648437.027344c-.847656,0-1.503906.683594-1.503906,1.507812Zm1.503906-6.511718h8.675781c.847656,0,1.53125-.6875,1.53125-1.535156c0-.820313-.683594-1.503907-1.53125-1.503907h-8.675781c-.847656,0-1.503906.683594-1.503906,1.503907c0,.847656.65625,1.535156,1.503906,1.535156Zm0,0" fill="#2b4863"/></g></g></g><g id="moio_banner-s-g59"><g id="moio_banner-s-g60" transform="translate(537.681 213.072)"><g id="moio_banner-s-g61"><path id="moio_banner-s-path21" d="M12.449219,-16.582031c.738281-.792969.519531-2.105469-.464844-2.570313-.246094-.109375-.492187-.191406-.765625-.273437-.929688-.328125-1.890625-.464844-2.902344-.464844-.875,0-1.722656.109375-2.542968.355469-.847657.21875-1.585938.574218-2.242188,1.039062-.660156.464844-1.179688,1.066406-1.589844,1.777344-.382812.714844-.574218,1.5625-.574218,2.546875c0,1.121094.21875,1.996094.65625,2.679687.4375.65625.984374,1.203126,1.644531,1.585938.65625.414062,1.394531.742188,2.160156.960938.792969.246093,1.503906.464843,2.1875.738281.65625.246093,1.203125.574219,1.640625.957031.441406.355469.660156.902344.660156,1.585938c0,.4375-.082031.820312-.273437,1.148437-.195313.328125-.46875.601563-.796875.792969-.300782.21875-.65625.382812-1.066406.496094-.382813.109374-.765626.164062-1.175782.164062-.738281,0-1.449218-.191406-2.105468-.523438-.246094-.136718-.464844-.273437-.683594-.4375-.628906-.492187-1.535156-.4375-2.109375.109376l-.136719.136718c-.710938.6875-.65625,1.917969.191406,2.464844.4375.300781.902344.519531,1.398438.710938c1.066406.382812,2.214844.574218,3.363281.574218.929687,0,1.804687-.136718,2.652344-.382812.851562-.246094,1.5625-.601563,2.21875-1.121094.628906-.492188,1.121093-1.121094,1.503906-1.863281.355469-.765625.546875-1.640625.546875-2.679688c0-1.121093-.21875-1.996093-.65625-2.679687s-1.011719-1.234375-1.667969-1.644532-1.367187-.710937-2.164062-.957031c-.765625-.21875-1.503907-.464843-2.160157-.710937s-1.203124-.546875-1.640624-.875c-.464844-.355469-.683594-.847656-.683594-1.476563c0-.4375.109375-.792969.273437-1.09375.191407-.328125.410157-.574219.710938-.765625.300781-.195312.628906-.359375.984375-.441406s.738281-.136719,1.148437-.136719c.65625,0,1.285157.136719,1.859375.355469.195313.085938.332032.167969.496094.25.65625.410156,1.476562.328125,1.996094-.222656l.109375-.109375Zm0,0" fill="#2b4863"/></g></g></g><g id="moio_banner-s-g62"><g id="moio_banner-s-g63" transform="translate(564.053 213.072)"><g id="moio_banner-s-g64"><path id="moio_banner-s-path22" d="M12.449219,-16.582031c.738281-.792969.519531-2.105469-.464844-2.570313-.246094-.109375-.492187-.191406-.765625-.273437-.929688-.328125-1.890625-.464844-2.902344-.464844-.875,0-1.722656.109375-2.542968.355469-.847657.21875-1.585938.574218-2.242188,1.039062-.660156.464844-1.179688,1.066406-1.589844,1.777344-.382812.714844-.574218,1.5625-.574218,2.546875c0,1.121094.21875,1.996094.65625,2.679687.4375.65625.984374,1.203126,1.644531,1.585938.65625.414062,1.394531.742188,2.160156.960938.792969.246093,1.503906.464843,2.1875.738281.65625.246093,1.203125.574219,1.640625.957031.441406.355469.660156.902344.660156,1.585938c0,.4375-.082031.820312-.273437,1.148437-.195313.328125-.46875.601563-.796875.792969-.300782.21875-.65625.382812-1.066406.496094-.382813.109374-.765626.164062-1.175782.164062-.738281,0-1.449218-.191406-2.105468-.523438-.246094-.136718-.464844-.273437-.683594-.4375-.628906-.492187-1.535156-.4375-2.109375.109376l-.136719.136718c-.710938.6875-.65625,1.917969.191406,2.464844.4375.300781.902344.519531,1.398438.710938c1.066406.382812,2.214844.574218,3.363281.574218.929687,0,1.804687-.136718,2.652344-.382812.851562-.246094,1.5625-.601563,2.21875-1.121094.628906-.492188,1.121093-1.121094,1.503906-1.863281.355469-.765625.546875-1.640625.546875-2.679688c0-1.121093-.21875-1.996093-.65625-2.679687s-1.011719-1.234375-1.667969-1.644532-1.367187-.710937-2.164062-.957031c-.765625-.21875-1.503907-.464843-2.160157-.710937s-1.203124-.546875-1.640624-.875c-.464844-.355469-.683594-.847656-.683594-1.476563c0-.4375.109375-.792969.273437-1.09375.191407-.328125.410157-.574219.710938-.765625.300781-.195312.628906-.359375.984375-.441406s.738281-.136719,1.148437-.136719c.65625,0,1.285157.136719,1.859375.355469.195313.085938.332032.167969.496094.25.65625.410156,1.476562.328125,1.996094-.222656l.109375-.109375Zm0,0" fill="#2b4863"/></g></g></g><g id="moio_banner-s-g65"><g id="moio_banner-s-g66" transform="translate(590.424 213.072)"><g id="moio_banner-s-g67"><path id="moio_banner-s-path23" d="M1.367188,-9.273438v7.824219c0,.847657.65625,1.53125,1.503906,1.53125h8.648437c.847657,0,1.53125-.683593,1.53125-1.53125s-.683593-1.53125-1.53125-1.53125h-5.28125c-.847656,0-1.53125-.660156-1.53125-1.507812v-1.777344c0-.820313.683594-1.503906,1.53125-1.503906h5.28125c.847657,0,1.53125-.683594,1.53125-1.53125c0-.824219-.683593-1.507813-1.53125-1.507813l-8.648437.027344c-.847656,0-1.503906.683594-1.503906,1.507812Zm1.503906-6.511718h8.675781c.847656,0,1.53125-.6875,1.53125-1.535156c0-.820313-.683594-1.503907-1.53125-1.503907h-8.675781c-.847656,0-1.503906.683594-1.503906,1.503907c0,.847656.65625,1.535156,1.503906,1.535156Zm0,0" fill="#2b4863"/></g></g></g><g id="moio_banner-s-g68"><g id="moio_banner-s-g69" transform="translate(616.003 213.072)"><g id="moio_banner-s-g70"><path id="moio_banner-s-path24" d="M12.449219,-16.582031c.738281-.792969.519531-2.105469-.464844-2.570313-.246094-.109375-.492187-.191406-.765625-.273437-.929688-.328125-1.890625-.464844-2.902344-.464844-.875,0-1.722656.109375-2.542968.355469-.847657.21875-1.585938.574218-2.242188,1.039062-.660156.464844-1.179688,1.066406-1.589844,1.777344-.382812.714844-.574218,1.5625-.574218,2.546875c0,1.121094.21875,1.996094.65625,2.679687.4375.65625.984374,1.203126,1.644531,1.585938.65625.414062,1.394531.742188,2.160156.960938.792969.246093,1.503906.464843,2.1875.738281.65625.246093,1.203125.574219,1.640625.957031.441406.355469.660156.902344.660156,1.585938c0,.4375-.082031.820312-.273437,1.148437-.195313.328125-.46875.601563-.796875.792969-.300782.21875-.65625.382812-1.066406.496094-.382813.109374-.765626.164062-1.175782.164062-.738281,0-1.449218-.191406-2.105468-.523438-.246094-.136718-.464844-.273437-.683594-.4375-.628906-.492187-1.535156-.4375-2.109375.109376l-.136719.136718c-.710938.6875-.65625,1.917969.191406,2.464844.4375.300781.902344.519531,1.398438.710938c1.066406.382812,2.214844.574218,3.363281.574218.929687,0,1.804687-.136718,2.652344-.382812.851562-.246094,1.5625-.601563,2.21875-1.121094.628906-.492188,1.121093-1.121094,1.503906-1.863281.355469-.765625.546875-1.640625.546875-2.679688c0-1.121093-.21875-1.996093-.65625-2.679687s-1.011719-1.234375-1.667969-1.644532-1.367187-.710937-2.164062-.957031c-.765625-.21875-1.503907-.464843-2.160157-.710937s-1.203124-.546875-1.640624-.875c-.464844-.355469-.683594-.847656-.683594-1.476563c0-.4375.109375-.792969.273437-1.09375.191407-.328125.410157-.574219.710938-.765625.300781-.195312.628906-.359375.984375-.441406s.738281-.136719,1.148437-.136719c.65625,0,1.285157.136719,1.859375.355469.195313.085938.332032.167969.496094.25.65625.410156,1.476562.328125,1.996094-.222656l.109375-.109375Zm0,0" fill="#2b4863"/></g></g></g></g><g id="moio_banner-s-g71"><g id="moio_banner-s-g72"><g id="moio_banner-s-g73" transform="translate(64.2065 165.517)"><g id="moio_banner-s-g74"><path id="moio_banner-s-path25" d="M113.570312,-91.753906c-12.324218,0-23.8125,6.492187-30.476562,16.984375-4.992188-10.492188-14.820312-16.984375-27.640625-16.984375-11.324219,0-21.816406,5.328125-28.808594,14.320312L24.3125,-89.921875h-10.15625v89.921875h14.152344v-49.789062c0-16.488282,10.824218-29.144532,23.980468-29.144532c12.988282,0,20.480469,9.660156,20.480469,25.980469v52.953125h13.988281v-49.789062c0-16.488282,10.824219-29.144532,23.980469-29.144532c12.824219,0,20.316407,9.660156,20.316407,25.980469v52.953125h14.152343v-57.449219c0-20.152343-12.652343-34.304687-31.636719-34.304687Zm0,0" fill="#2b4863"/></g></g></g><g id="moio_banner-s-g75"><g id="moio_banner-s-g76" transform="translate(222.384 165.517)"><g id="moio_banner-s-g77"><path id="moio_banner-s-path26" d="M54.785156,2c27.144532,0,47.628906-19.984375,47.628906-46.960938c0-26.8125-20.484374-46.792968-47.628906-46.792968-27.308594,0-47.792968,19.816406-47.792968,46.792968s20.484374,46.960938,47.792968,46.960938Zm0-13.65625c-19.316406,0-33.304687-13.988281-33.304687-33.304688c0-19.152343,13.988281-33.140624,33.304687-33.140624c19.152344,0,33.140625,13.988281,33.140625,33.304687c0,19.152344-13.988281,33.140625-33.140625,33.140625Zm0,0" fill="#2b4863"/></g></g></g><g id="moio_banner-s-g78"><g id="moio_banner-s-g79" transform="translate(332.109 165.517)"><g id="moio_banner-s-g80"><path id="moio_banner-s-path27" d="M13.65625,-105.410156h15.320312v-16.152344h-15.320312v16.152344ZM14.15625,0h14.152344v-89.921875h-14.152344v89.921875Zm0,0" fill="#2b4863"/></g></g></g><g id="moio_banner-s-g81"><g id="moio_banner-s-g82" transform="translate(374.733 165.517)"><g id="moio_banner-s-g83"><path id="moio_banner-s-path28" d="M54.785156,2c27.144532,0,47.628906-19.984375,47.628906-46.960938c0-26.8125-20.484374-46.792968-47.628906-46.792968-27.308594,0-47.792968,19.816406-47.792968,46.792968s20.484374,46.960938,47.792968,46.960938Zm0-13.65625c-19.316406,0-33.304687-13.988281-33.304687-33.304688c0-19.152343,13.988281-33.140624,33.304687-33.140624c19.152344,0,33.140625,13.988281,33.140625,33.304687c0,19.152344-13.988281,33.140625-33.140625,33.140625Zm0,0" fill="#2b4863"/></g></g></g></g></svg>